<svg width="91" height="24" viewBox="0 0 91 24" fill="none" xmlns="http://www.w3.org/2000/svg">
<path d="M10.0001 8.66663V15.3333M13.3334 12H6.66675" stroke="white" stroke-width="1.25" stroke-linecap="round" stroke-linejoin="round"/>
<path d="M18.3334 12C18.3334 7.39758 14.6024 3.66663 10.0001 3.66663C5.39771 3.66663 1.66675 7.39758 1.66675 12C1.66675 16.6023 5.39771 20.3333 10.0001 20.3333C14.6024 20.3333 18.3334 16.6023 18.3334 12Z" stroke="white" stroke-width="1.25"/>
<path d="M32.432 17L28.384 6.136L28.288 5.8H30.128L34.384 16.872V17H32.432ZM24.032 17V16.872L28.288 5.8H30.128L29.984 6.136L25.936 17H24.032ZM25.92 14.344L26.4 12.584H32.176L32.656 14.344H25.92ZM38.8703 17.24C38.1449 17.24 37.4889 17.0587 36.9023 16.696C36.3156 16.3227 35.8516 15.816 35.5103 15.176C35.1689 14.536 34.9983 13.8 34.9983 12.968C34.9983 12.1253 35.1689 11.384 35.5103 10.744C35.8516 10.104 36.3156 9.60267 36.9023 9.24C37.4889 8.86667 38.1449 8.68 38.8703 8.68C39.4676 8.68 40.0009 8.80267 40.4703 9.048C40.9503 9.29333 41.3449 9.61333 41.6543 10.008C41.9743 10.392 42.1983 10.8133 42.3263 11.272V14.664C42.1983 15.112 41.9743 15.5333 41.6543 15.928C41.3449 16.3227 40.9503 16.6427 40.4703 16.888C40.0009 17.1227 39.4676 17.24 38.8703 17.24ZM39.1423 15.56C39.6116 15.56 40.0223 15.4533 40.3743 15.24C40.7263 15.016 41.0036 14.7067 41.2063 14.312C41.4089 13.9173 41.5103 13.464 41.5103 12.952C41.5103 12.44 41.4089 11.992 41.2063 11.608C41.0036 11.2133 40.7263 10.904 40.3743 10.68C40.0223 10.456 39.6116 10.344 39.1423 10.344C38.6943 10.344 38.2943 10.456 37.9423 10.68C37.5903 10.904 37.3183 11.2133 37.1263 11.608C36.9343 11.992 36.8383 12.44 36.8383 12.952C36.8383 13.464 36.9343 13.9173 37.1263 14.312C37.3183 14.7067 37.5903 15.016 37.9423 15.24C38.2943 15.4533 38.6943 15.56 39.1423 15.56ZM41.5743 17V14.504L41.9583 12.952L41.4623 11.416V5.48L43.2543 5.256L43.3023 5.384V17H41.5743ZM48.8546 17.24C48.1293 17.24 47.4733 17.0587 46.8866 16.696C46.3 16.3227 45.836 15.816 45.4946 15.176C45.1533 14.536 44.9826 13.8 44.9826 12.968C44.9826 12.1253 45.1533 11.384 45.4946 10.744C45.836 10.104 46.3 9.60267 46.8866 9.24C47.4733 8.86667 48.1293 8.68 48.8546 8.68C49.452 8.68 49.9853 8.80267 50.4546 9.048C50.9346 9.29333 51.3293 9.61333 51.6386 10.008C51.9586 10.392 52.1826 10.8133 52.3106 11.272V14.664C52.1826 15.112 51.9586 15.5333 51.6386 15.928C51.3293 16.3227 50.9346 16.6427 50.4546 16.888C49.9853 17.1227 49.452 17.24 48.8546 17.24ZM49.1266 15.56C49.596 15.56 50.0066 15.4533 50.3586 15.24C50.7106 15.016 50.988 14.7067 51.1906 14.312C51.3933 13.9173 51.4946 13.464 51.4946 12.952C51.4946 12.44 51.3933 11.992 51.1906 11.608C50.988 11.2133 50.7106 10.904 50.3586 10.68C50.0066 10.456 49.596 10.344 49.1266 10.344C48.6786 10.344 48.2786 10.456 47.9266 10.68C47.5746 10.904 47.3026 11.2133 47.1106 11.608C46.9186 11.992 46.8226 12.44 46.8226 12.952C46.8226 13.464 46.9186 13.9173 47.1106 14.312C47.3026 14.7067 47.5746 15.016 47.9266 15.24C48.2786 15.4533 48.6786 15.56 49.1266 15.56ZM51.5586 17V14.504L51.9426 12.952L51.4466 11.416V5.48L53.2386 5.256L53.2866 5.384V17H51.5586ZM61.6023 17V5.8H63.4423V17H61.6023ZM58.2583 7.56V5.8H66.7863V7.56H58.2583ZM68.8478 17.24C68.2931 17.24 67.7971 17.1333 67.3598 16.92C66.9331 16.7067 66.5971 16.408 66.3518 16.024C66.1064 15.64 65.9838 15.2027 65.9838 14.712C65.9838 13.9547 66.2451 13.352 66.7678 12.904C67.2904 12.4453 68.0424 12.1787 69.0238 12.104L72.1598 11.848V13.368L69.2958 13.608C68.7838 13.6507 68.4158 13.7573 68.1918 13.928C67.9678 14.0987 67.8558 14.328 67.8558 14.616C67.8558 14.904 67.9838 15.1387 68.2398 15.32C68.4958 15.5013 68.8211 15.592 69.2158 15.592C69.6318 15.592 70.0051 15.4907 70.3358 15.288C70.6771 15.0747 70.9491 14.8027 71.1518 14.472C71.3544 14.1413 71.4558 13.784 71.4558 13.4V12.072C71.4558 11.56 71.2851 11.1387 70.9438 10.808C70.6024 10.4667 70.1544 10.296 69.5998 10.296C69.1304 10.296 68.7411 10.4133 68.4318 10.648C68.1331 10.872 67.9411 11.1547 67.8558 11.496H67.6798L66.1118 11.112C66.3037 10.3867 66.7038 9.8 67.3118 9.352C67.9304 8.904 68.6984 8.68 69.6158 8.68C70.7571 8.68 71.6478 9.01067 72.2878 9.672C72.9278 10.3227 73.2478 11.2453 73.2478 12.44V17H71.6158V14.648L72.2718 14.744C72.1438 15.2027 71.9144 15.624 71.5838 16.008C71.2531 16.3813 70.8531 16.68 70.3838 16.904C69.9251 17.128 69.4131 17.24 68.8478 17.24ZM78.0915 17.24C77.2168 17.24 76.4702 17.032 75.8515 16.616C75.2328 16.2 74.8222 15.6293 74.6195 14.904L76.2995 14.488L76.4755 14.52C76.5715 14.8613 76.7742 15.1333 77.0835 15.336C77.4035 15.528 77.7715 15.624 78.1875 15.624C78.5928 15.624 78.9342 15.5387 79.2115 15.368C79.4995 15.1867 79.6435 14.9573 79.6435 14.68C79.6435 14.4453 79.5582 14.2587 79.3875 14.12C79.2275 13.9707 78.9768 13.8587 78.6355 13.784L77.1155 13.448C76.3688 13.2773 75.7982 12.9947 75.4035 12.6C75.0195 12.1947 74.8275 11.7093 74.8275 11.144C74.8275 10.6533 74.9608 10.2267 75.2275 9.864C75.5048 9.49067 75.8835 9.20267 76.3635 9C76.8435 8.78667 77.3928 8.68 78.0115 8.68C78.8542 8.68 79.5688 8.888 80.1555 9.304C80.7422 9.72 81.1315 10.3013 81.3235 11.048L79.7235 11.384L79.5475 11.352C79.4622 11.032 79.2648 10.776 78.9555 10.584C78.6568 10.392 78.3155 10.296 77.9315 10.296C77.5688 10.296 77.2595 10.3707 77.0035 10.52C76.7582 10.6587 76.6355 10.8507 76.6355 11.096C76.6355 11.2773 76.7102 11.4427 76.8595 11.592C77.0088 11.7307 77.2435 11.832 77.5635 11.896L79.0835 12.248C79.8728 12.4293 80.4648 12.7067 80.8595 13.08C81.2648 13.4427 81.4675 13.9387 81.4675 14.568C81.4675 15.112 81.3182 15.5867 81.0195 15.992C80.7315 16.3867 80.3315 16.696 79.8195 16.92C79.3182 17.1333 78.7422 17.24 78.0915 17.24ZM84.1448 15.592V13.144L88.2408 8.92H90.5128V9.048L84.1448 15.592ZM83.0568 17V5.48L84.8488 5.256L84.8968 5.384V17H83.0568ZM88.4968 17L85.7128 12.936L86.9928 11.784L90.5448 16.872V17H88.4968Z" fill="white"/>
</svg>
