<svg width="168" height="44" viewBox="0 0 168 44" fill="none" xmlns="http://www.w3.org/2000/svg">
<path d="M36.652 9.25095L29.2712 4.94336C32.7061 8.48947 32.5784 9.12825 32.5784 11.7981V33.8293L37.0029 32.8153C38.1708 32.5476 39.0001 31.4981 39.0001 30.2874V13.3622C39.0001 11.666 38.1051 10.0989 36.652 9.25095Z" fill="url(#paint0_linear_8_103)"/>
<path d="M2.34811 34.7483L9.72888 39.0559C6.29401 35.5098 6.42176 34.871 6.42176 32.2011V10.1699L1.99722 11.184C0.829292 11.4517 0 12.5012 0 13.7118V30.637C0.000245208 32.3332 0.895253 33.9003 2.34811 34.7483Z" fill="url(#paint1_linear_8_103)"/>
<path d="M14.0634 10.3369C14.0634 11.9761 14.0634 14.7334 14.0634 17.9496H24.9392C24.9392 10.0597 24.9392 2.4492 24.9392 2.4492L21.8321 0.635988C20.3793 -0.211996 18.589 -0.211996 17.1361 0.635988L2.34934 9.26603C0.896478 10.114 0.00146484 11.6811 0.00146484 13.3771V13.7122C0.00146484 12.5016 0.830519 11.452 1.99869 11.1843C1.99869 11.1843 5.3193 10.4338 6.42323 10.1703C10.58 9.17704 14.0634 8.92223 14.0634 10.3369Z" fill="url(#paint2_linear_8_103)"/>
<path d="M37.003 32.8159C37.003 32.8159 33.7687 33.5397 32.5784 33.8302C29.3213 34.6249 24.938 35.0778 24.938 33.6634C24.938 32.0267 24.938 29.2688 24.938 26.0509H14.0623C14.0623 33.9413 14.0623 41.5511 14.0623 41.5511L17.1693 43.3645C18.6221 44.2125 20.4124 44.2125 21.8653 43.3645L36.6521 34.7345C38.1052 33.8865 38.9999 32.3194 38.9999 30.6235V30.2883C39.0002 31.4987 38.1709 32.5482 37.003 32.8159Z" fill="url(#paint3_linear_8_103)"/>
<path d="M55.2211 6.224V18H52.9011V13.216H47.6371V18H45.3171V6.224H47.6371V10.976H52.9011V6.224H55.2211ZM58.2546 6.224H66.2866V8.464H60.5746V10.976H65.6306V13.216H60.5746V15.76H66.5106V18H58.2546V6.224ZM67.9509 6.224H70.9109L78.5909 18H75.5989L67.9509 6.224ZM67.7909 18L71.9829 11.408L73.0709 13.744L70.6709 18H67.7909ZM73.2309 10.544L75.6629 6.224H78.4789L74.4309 12.544L73.2309 10.544ZM79.1766 18L84.4886 5.76H84.6166L89.9286 18H87.2406L83.8486 9.392L85.5286 8.24L81.4646 18H79.1766ZM82.8086 13.744H86.3446L87.1606 15.696H82.0886L82.8086 13.744ZM91.6452 18V6.224H95.1652C96.3492 6.224 97.3572 6.4 98.1892 6.752C99.0212 7.104 99.6879 7.57333 100.189 8.16C100.701 8.74667 101.075 9.40267 101.309 10.128C101.544 10.8533 101.661 11.584 101.661 12.32C101.661 13.1947 101.501 13.984 101.181 14.688C100.872 15.3813 100.445 15.9787 99.9012 16.48C99.3572 16.9707 98.7279 17.3493 98.0132 17.616C97.2986 17.872 96.5412 18 95.7412 18H91.6452ZM93.9652 15.76H95.3412C96.1306 15.76 96.8186 15.6267 97.4052 15.36C97.9919 15.0827 98.4452 14.6773 98.7652 14.144C99.0959 13.6107 99.2612 12.9493 99.2612 12.16C99.2612 11.392 99.1332 10.768 98.8772 10.288C98.6319 9.79733 98.3226 9.41867 97.9492 9.152C97.5866 8.88533 97.2132 8.704 96.8292 8.608C96.4452 8.50133 96.1199 8.448 95.8532 8.448H93.9652V15.76ZM103.989 6.224H112.021V8.464H106.309V10.976H111.365V13.216H106.309V15.76H112.245V18H103.989V6.224ZM123.477 17.024C123.349 17.1307 123.109 17.2747 122.757 17.456C122.416 17.6373 121.995 17.7973 121.493 17.936C120.992 18.0747 120.437 18.1387 119.829 18.128C118.901 18.1067 118.069 17.9413 117.333 17.632C116.608 17.312 115.989 16.88 115.477 16.336C114.976 15.792 114.592 15.168 114.325 14.464C114.059 13.76 113.925 13.008 113.925 12.208C113.925 11.312 114.059 10.4907 114.325 9.744C114.603 8.99733 114.992 8.352 115.493 7.808C116.005 7.264 116.613 6.84267 117.317 6.544C118.021 6.24533 118.8 6.096 119.653 6.096C120.443 6.096 121.141 6.20267 121.749 6.416C122.357 6.62933 122.853 6.85867 123.237 7.104L122.325 9.296C122.059 9.09333 121.701 8.88533 121.253 8.672C120.816 8.448 120.309 8.336 119.733 8.336C119.136 8.336 118.576 8.50133 118.053 8.832C117.541 9.16267 117.125 9.61067 116.805 10.176C116.496 10.7307 116.341 11.3653 116.341 12.08C116.341 12.8373 116.485 13.504 116.773 14.08C117.061 14.6453 117.472 15.088 118.005 15.408C118.539 15.728 119.163 15.888 119.877 15.888C120.507 15.888 121.045 15.7867 121.493 15.584C121.941 15.3813 122.283 15.168 122.517 14.944L123.477 17.024ZM125.801 6.224H128.121V18H125.801V6.224ZM131.161 18V5.744H131.177L137.721 15.024L136.729 14.8L143.257 5.744H143.289V18H140.969V10.976L141.113 12.176L137.129 17.84H137.097L133.001 12.176L133.401 11.072V18H131.161ZM145.005 18L150.317 5.76H150.445L155.757 18H153.069L149.677 9.392L151.357 8.24L147.293 18H145.005ZM148.637 13.744H152.173L152.989 15.696H147.917L148.637 13.744ZM157.473 6.224H159.793V15.76H165.329V18H157.473V6.224Z" fill="url(#paint4_linear_8_103)"/>
<path d="M43.0002 25L167 25" stroke="url(#paint5_linear_8_103)" stroke-linecap="round"/>
<path d="M48.8562 32.304C48.5202 32.12 48.1762 31.968 47.8242 31.848C47.4802 31.728 47.1562 31.668 46.8522 31.668C46.4762 31.668 46.1802 31.744 45.9642 31.896C45.7482 32.048 45.6402 32.276 45.6402 32.58C45.6402 32.788 45.7202 32.976 45.8802 33.144C46.0482 33.304 46.2602 33.448 46.5162 33.576C46.7802 33.704 47.0522 33.82 47.3322 33.924C47.6762 34.052 48.0082 34.216 48.3282 34.416C48.6482 34.608 48.9122 34.876 49.1202 35.22C49.3282 35.556 49.4322 36.004 49.4322 36.564C49.4322 37.012 49.3162 37.428 49.0842 37.812C48.8522 38.196 48.5122 38.508 48.0642 38.748C47.6162 38.98 47.0642 39.096 46.4082 39.096C45.9042 39.096 45.3882 39.02 44.8602 38.868C44.3402 38.716 43.8482 38.476 43.3842 38.148L44.1522 36.792C44.4562 37.016 44.8042 37.2 45.1962 37.344C45.5882 37.488 45.9402 37.56 46.2522 37.56C46.4602 37.56 46.6682 37.532 46.8762 37.476C47.0922 37.412 47.2682 37.308 47.4042 37.164C47.5482 37.02 47.6202 36.82 47.6202 36.564C47.6202 36.388 47.5602 36.228 47.4402 36.084C47.3282 35.94 47.1722 35.808 46.9722 35.688C46.7802 35.568 46.5682 35.464 46.3362 35.376C46.0642 35.272 45.7842 35.152 45.4962 35.016C45.2082 34.88 44.9362 34.716 44.6802 34.524C44.4322 34.324 44.2282 34.08 44.0682 33.792C43.9162 33.496 43.8402 33.136 43.8402 32.712C43.8402 32.2 43.9522 31.756 44.1762 31.38C44.4082 31.004 44.7322 30.708 45.1482 30.492C45.5642 30.268 46.0442 30.144 46.5882 30.12C47.3002 30.12 47.8762 30.204 48.3162 30.372C48.7642 30.54 49.1642 30.74 49.5162 30.972L48.8562 32.304ZM50.5963 34.596C50.5963 33.988 50.7123 33.412 50.9443 32.868C51.1763 32.324 51.4963 31.844 51.9043 31.428C52.3203 31.004 52.8003 30.672 53.3443 30.432C53.8883 30.192 54.4683 30.072 55.0843 30.072C55.7083 30.072 56.2923 30.192 56.8363 30.432C57.3803 30.672 57.8603 31.004 58.2763 31.428C58.7003 31.844 59.0283 32.324 59.2603 32.868C59.5003 33.412 59.6203 33.988 59.6203 34.596C59.6203 35.22 59.5003 35.804 59.2603 36.348C59.0283 36.892 58.7003 37.372 58.2763 37.788C57.8603 38.196 57.3803 38.516 56.8363 38.748C56.2923 38.98 55.7123 39.096 55.0963 39.096C54.4723 39.096 53.8883 38.98 53.3443 38.748C52.8003 38.516 52.3203 38.196 51.9043 37.788C51.4963 37.372 51.1763 36.892 50.9443 36.348C50.7123 35.804 50.5963 35.22 50.5963 34.596ZM52.3963 34.596C52.3963 35.116 52.5163 35.592 52.7563 36.024C53.0043 36.448 53.3363 36.788 53.7523 37.044C54.1683 37.292 54.6363 37.416 55.1563 37.416C55.6603 37.416 56.1123 37.292 56.5123 37.044C56.9203 36.788 57.2403 36.448 57.4723 36.024C57.7043 35.592 57.8203 35.116 57.8203 34.596C57.8203 34.06 57.7003 33.58 57.4603 33.156C57.2203 32.724 56.8963 32.384 56.4883 32.136C56.0803 31.88 55.6203 31.752 55.1083 31.752C54.5963 31.752 54.1363 31.88 53.7283 32.136C53.3203 32.384 52.9963 32.724 52.7563 33.156C52.5163 33.58 52.3963 34.06 52.3963 34.596ZM61.3551 30.168H66.8751V31.848H63.0951V33.852H66.3711V35.532H63.0951V39H61.3551V30.168ZM67.9504 30.168H73.9024V31.848H71.7544V39H70.0144V31.848H67.9504V30.168ZM74.8257 30.228H76.8657L78.7497 35.772L78.4737 35.652L80.1177 31.56L80.9217 33.948L78.3777 39.408L74.8257 30.228ZM79.2537 30.228H80.9817L83.1537 35.592L82.8417 35.544L84.4617 30.228H86.3337L82.9257 39.384L79.2537 30.228ZM85.6716 39L89.6556 29.82H89.7516L93.7356 39H91.7196L89.1756 32.544L90.4356 31.68L87.3876 39H85.6716ZM88.3956 35.808H91.0476L91.6596 37.272H87.8556L88.3956 35.808ZM97.6991 30.168C98.4431 30.168 99.0711 30.292 99.5831 30.54C100.095 30.78 100.483 31.124 100.747 31.572C101.019 32.012 101.155 32.536 101.155 33.144C101.155 33.504 101.099 33.864 100.987 34.224C100.883 34.584 100.707 34.912 100.459 35.208C100.219 35.504 99.8991 35.744 99.4991 35.928C99.0991 36.104 98.6031 36.192 98.0111 36.192H96.7631V39H95.0231V30.168H97.6991ZM97.9991 34.512C98.3511 34.512 98.6231 34.44 98.8151 34.296C99.0151 34.144 99.1551 33.968 99.2351 33.768C99.3151 33.56 99.3551 33.372 99.3551 33.204C99.3551 33.108 99.3391 32.988 99.3071 32.844C99.2831 32.692 99.2271 32.54 99.1391 32.388C99.0511 32.236 98.9151 32.108 98.7311 32.004C98.5551 31.9 98.3151 31.848 98.0111 31.848H96.7631V34.512H97.9991ZM99.6311 35.592L101.815 39H99.7871L97.5551 35.64L99.6311 35.592ZM103.25 30.168H109.274V31.848H104.99V33.732H108.782V35.412H104.99V37.32H109.442V39H103.25V30.168Z" fill="url(#paint6_linear_8_103)"/>
<defs>
<linearGradient id="paint0_linear_8_103" x1="34.5576" y1="8.92779" x2="33.358" y2="33.1887" gradientUnits="userSpaceOnUse">
<stop stop-color="#008ED3"/>
<stop offset="0.2162" stop-color="#018BD0"/>
<stop offset="0.4001" stop-color="#0480C6"/>
<stop offset="0.5723" stop-color="#096FB6"/>
<stop offset="0.7373" stop-color="#11569F"/>
<stop offset="0.8958" stop-color="#1A3682"/>
<stop offset="1" stop-color="#221D6B"/>
</linearGradient>
<linearGradient id="paint1_linear_8_103" x1="4.86464" y1="37.9205" x2="4.86464" y2="10.0977" gradientUnits="userSpaceOnUse">
<stop stop-color="#008ED3"/>
<stop offset="0.2162" stop-color="#018BD0"/>
<stop offset="0.4001" stop-color="#0480C6"/>
<stop offset="0.5723" stop-color="#096FB6"/>
<stop offset="0.7373" stop-color="#11569F"/>
<stop offset="0.8958" stop-color="#1A3682"/>
<stop offset="1" stop-color="#221D6B"/>
</linearGradient>
<linearGradient id="paint2_linear_8_103" x1="12.4703" y1="-1.64797" x2="12.4703" y2="40.7586" gradientUnits="userSpaceOnUse">
<stop stop-color="#008ED3"/>
<stop offset="0.2162" stop-color="#018BD0"/>
<stop offset="0.4001" stop-color="#0480C6"/>
<stop offset="0.5723" stop-color="#096FB6"/>
<stop offset="0.7373" stop-color="#11569F"/>
<stop offset="0.8958" stop-color="#1A3682"/>
<stop offset="1" stop-color="#221D6B"/>
</linearGradient>
<linearGradient id="paint3_linear_8_103" x1="26.5312" y1="20.369" x2="26.5312" y2="55.5983" gradientUnits="userSpaceOnUse">
<stop stop-color="#008ED3"/>
<stop offset="0.2162" stop-color="#018BD0"/>
<stop offset="0.4001" stop-color="#0480C6"/>
<stop offset="0.5723" stop-color="#096FB6"/>
<stop offset="0.7373" stop-color="#11569F"/>
<stop offset="0.8958" stop-color="#1A3682"/>
<stop offset="1" stop-color="#221D6B"/>
</linearGradient>
<linearGradient id="paint4_linear_8_103" x1="43.0002" y1="12" x2="197.205" y2="12" gradientUnits="userSpaceOnUse">
<stop stop-color="#018ED3"/>
<stop offset="1" stop-color="#1F2976"/>
</linearGradient>
<linearGradient id="paint5_linear_8_103" x1="43.0002" y1="25.5" x2="167" y2="25.5" gradientUnits="userSpaceOnUse">
<stop stop-color="#028DD2"/>
<stop offset="1" stop-color="#18428D"/>
</linearGradient>
<linearGradient id="paint6_linear_8_103" x1="43.0002" y1="35" x2="127.564" y2="35" gradientUnits="userSpaceOnUse">
<stop stop-color="#018ED3"/>
<stop offset="1" stop-color="#1F2976"/>
</linearGradient>
</defs>
</svg>
